<svg width="278" height="160" viewBox="0 0 278 160" fill="none" xmlns="http://www.w3.org/2000/svg">
<path d="M154.529 77.9126C154.529 80.2187 155.672 82.0874 157.957 83.5187C160.242 84.8705 163 85.9838 166.231 86.8585C169.462 87.6537 172.693 88.608 175.924 89.7212C179.155 90.755 181.913 92.5839 184.198 95.208C186.483 97.7527 187.626 101.053 187.626 105.108C187.626 110.515 185.538 114.849 181.361 118.11C177.263 121.37 171.984 123 165.522 123C159.77 123 154.845 121.728 150.747 119.183C146.649 116.638 143.734 113.259 142 109.044L150.865 103.915C151.811 106.778 153.584 109.044 156.184 110.714C158.785 112.384 161.897 113.219 165.522 113.219C168.911 113.219 171.708 112.583 173.914 111.311C176.121 109.959 177.224 107.891 177.224 105.108C177.224 102.802 176.081 100.973 173.796 99.6214C171.511 98.19 168.753 97.0767 165.522 96.2816C162.291 95.4068 159.06 94.4129 155.83 93.2996C152.599 92.1863 149.841 90.3574 147.555 87.8128C145.27 85.2681 144.128 82.0079 144.128 78.0319C144.128 72.8632 146.098 68.6089 150.038 65.2691C154.057 61.9293 159.06 60.2594 165.049 60.2594C169.856 60.2594 174.111 61.3726 177.815 63.5992C181.597 65.7462 184.434 68.7679 186.326 72.6644L177.697 77.5548C175.569 72.4656 171.353 69.9209 165.049 69.9209C162.134 69.9209 159.651 70.6366 157.603 72.068C155.554 73.4198 154.529 75.368 154.529 77.9126Z" fill="#111111"/>
<path d="M240.004 61.81H250.287V121.449H240.004V112.861C235.827 119.62 229.444 123 220.855 123C213.921 123 208.365 120.813 204.189 116.44C200.012 111.987 197.924 105.983 197.924 98.4286V61.81H208.208V97.8322C208.208 102.683 209.508 106.46 212.108 109.164C214.709 111.788 218.294 113.1 222.865 113.1C227.987 113.1 232.124 111.509 235.276 108.329C238.428 105.068 240.004 100.098 240.004 93.4189V61.81Z" fill="#111111"/>
<path d="M271.144 50.9556C269.174 50.9556 267.519 50.2797 266.18 48.9279C264.84 47.5761 264.17 45.9459 264.17 44.0374C264.17 42.129 264.84 40.4988 266.18 39.147C267.519 37.7157 269.174 37 271.144 37C273.036 37 274.651 37.7157 275.991 39.147C277.33 40.4988 278 42.129 278 44.0374C278 45.9459 277.33 47.5761 275.991 48.9279C274.651 50.2797 273.036 50.9556 271.144 50.9556ZM265.943 121.449V61.81H276.227V121.449H265.943Z" fill="#111111"/>
<path fill-rule="evenodd" clip-rule="evenodd" d="M7.44427 132.216C17.37 149.615 35.1486 160 55 160C74.8514 160 92.6267 149.615 102.556 132.216C112.481 114.822 112.481 94.0509 102.556 76.6528L60.7295 3.34723C58.183 -1.11575 51.817 -1.11574 49.2705 3.34724L7.44427 76.6528C-2.48142 94.0475 -2.48142 114.818 7.44427 132.216ZM43.2175 38.2219L52.1352 22.592C53.4085 20.3604 56.5916 20.3604 57.8648 22.592L92.172 82.7217C98.4749 93.7681 99.658 106.553 95.7213 118.253C95.3113 116.344 94.7385 114.391 93.9661 112.418C89.2273 100.317 78.5124 90.979 62.113 84.6613C50.8379 80.3336 43.641 73.9686 40.7166 65.7422C36.9499 55.1391 40.8841 43.5766 43.2175 38.2219ZM28.0112 64.8737L17.828 82.7217C10.0686 96.3208 10.0686 112.555 17.828 126.154C25.5873 139.754 39.4813 147.869 55 147.869C65.3072 147.869 74.9003 144.286 82.4542 137.894C83.4394 135.385 86.4901 126.198 82.7212 116.729C79.2401 107.986 70.8627 101.006 57.8203 95.979C43.0776 90.3201 33.4995 81.4856 29.3577 69.7287C28.7872 68.11 28.344 66.4879 28.0112 64.8737Z" fill="#111111"/>
</svg>
